<svg width="20" height="20" viewBox="0 0 20 20" fill="none" xmlns="http://www.w3.org/2000/svg">
<path fill-rule="evenodd" clip-rule="evenodd" d="M9.67612 1.6665C5.25253 1.6665 1.6665 5.17333 1.6665 9.49922C1.6665 13.8251 5.25253 17.3319 9.67612 17.3319C11.5681 17.3319 13.3068 16.6905 14.6773 15.6178L17.2807 18.157L17.35 18.2154C17.5917 18.3903 17.9344 18.3704 18.1531 18.1559C18.3936 17.9201 18.3931 17.5381 18.1519 17.3028L15.5792 14.7934C16.8873 13.3993 17.6857 11.5405 17.6857 9.49922C17.6857 5.17333 14.0997 1.6665 9.67612 1.6665ZM9.67612 2.87295C13.4184 2.87295 16.452 5.83963 16.452 9.49922C16.452 13.1588 13.4184 16.1255 9.67612 16.1255C5.93388 16.1255 2.90019 13.1588 2.90019 9.49922C2.90019 5.83963 5.93388 2.87295 9.67612 2.87295Z" fill="#200E32"/>
</svg>
